<?xml version="1.0" encoding="UTF-8" standalone="no"?>
<svg
   xmlns:dc="http://purl.org/dc/elements/1.1/"
   xmlns:cc="http://creativecommons.org/ns#"
   xmlns:rdf="http://www.w3.org/1999/02/22-rdf-syntax-ns#"
   xmlns:svg="http://www.w3.org/2000/svg"
   xmlns="http://www.w3.org/2000/svg"
   viewBox="0 0 926.66669 564"
   height="564"
   width="926.66669"
   xml:space="preserve"
   id="svg2"
   version="1.1"><metadata
     id="metadata8"><rdf:RDF><cc:Work
         rdf:about=""><dc:format>image/svg+xml</dc:format><dc:type
           rdf:resource="http://purl.org/dc/dcmitype/StillImage" /></cc:Work></rdf:RDF></metadata><defs
     id="defs6"><clipPath
       id="clipPath20"
       clipPathUnits="userSpaceOnUse"><path
         id="path18"
         d="M 0,0 H 960 V 540 H 0 Z" /></clipPath><clipPath
       id="clipPath30"
       clipPathUnits="userSpaceOnUse"><path
         id="path28"
         d="M 0,1.206994e-5 H 959.76 V 540.00001 H 0 Z" /></clipPath></defs><g
     transform="matrix(1.3333333,0,0,-1.3333333,0,564)"
     id="g10"><g
       transform="translate(-132,-72)"
       id="g12"><g
         id="g14"><g
           clip-path="url(#clipPath20)"
           id="g16"><g
             id="g22" /><g
             id="g24"><g
               clip-path="url(#clipPath30)"
               id="g26"><path
                 id="path32"
                 style="fill:#ffffff;fill-opacity:1;fill-rule:nonzero;stroke:none"
                 d="M 0,1.206994e-5 H 959.76 V 540.00001 H 0 Z" /></g></g><g
             id="g34"><path
               id="path36"
               style="fill:#ffffff;fill-opacity:1;fill-rule:nonzero;stroke:none"
               d="M 0,1.40816e-5 H 960 V 540.00001 H 0 Z" /><path
               id="path38"
               style="fill:#4472c4;fill-opacity:1;fill-rule:nonzero;stroke:none"
               d="M 134,73.3334 H 826 V 493.3333 H 134 Z" /><g
               transform="matrix(7.874016e-5,0,0,-7.874016e-5,134,493.3333)"
               id="g40"><path
                 id="path42"
                 style="fill:none;stroke:#2f528f;stroke-width:12700;stroke-linecap:butt;stroke-linejoin:miter;stroke-miterlimit:8;stroke-dasharray:none;stroke-opacity:1"
                 d="M 0,0 H 8788400 V 5333999 H 0 Z" /></g><path
               id="path44"
               style="fill:#ffc000;fill-opacity:1;fill-rule:nonzero;stroke:none"
               d="M 295.3333,73.3334 H 826 V 387.3333 H 295.3333 Z" /><path
               id="path46"
               style="fill:#ed7d31;fill-opacity:1;fill-rule:nonzero;stroke:none"
               d="m 500,73.33341 h 326 v 162.6666 H 500 Z" /><g
               transform="matrix(7.874016e-5,0,0,-7.874016e-5,134.0001,493.3333)"
               id="g48"><path
                 id="path50"
                 style="fill:none;stroke:#2f5597;stroke-width:28575;stroke-linecap:butt;stroke-linejoin:round;stroke-miterlimit:10;stroke-dasharray:none;stroke-opacity:1"
                 d="M 0,0 H 2159000 V 369332 H 0 Z" /></g><g
               transform="matrix(0.24,0,0,0.24,141.2001,-67.19999)"
               id="g52"><text
                 id="text56"
                 style="font-variant:normal;font-weight:normal;font-size:75px;font-family:Calibri;-inkscape-font-specification:Calibri;writing-mode:lr-tb;fill:#e7e6e6;fill-opacity:1;fill-rule:nonzero;stroke:none"
                 transform="matrix(1,0,0,-1,0,2250)"><tspan
                   id="tspan54"
                   y="0"
                   x="0 43.23 69.285004 94.290001 111.495 134.39999 151.605 183.36 200.565 236.52 253.72501 270.92999 289.70999 328.59 352.76999 390.29999 407.505 424.70999 441.91501 476.67001 514.20001 553.755 585.51001">Artificial Intelligence</tspan></text>
</g><g
               transform="matrix(7.874016e-5,0,0,-7.874016e-5,295.3333,387.3333)"
               id="g58"><path
                 id="path60"
                 style="fill:none;stroke:#bf9000;stroke-width:28575;stroke-linecap:butt;stroke-linejoin:round;stroke-miterlimit:10;stroke-dasharray:none;stroke-opacity:1"
                 d="M 0,0 H 1862667 V 369332 H 0 Z" /></g><g
               transform="matrix(0.24,0,0,0.24,302.5333,-173.28)"
               id="g62"><text
                 id="text66"
                 style="font-variant:normal;font-weight:normal;font-size:75px;font-family:Calibri;-inkscape-font-specification:Calibri;writing-mode:lr-tb;fill:#e7e6e6;fill-opacity:1;fill-rule:nonzero;stroke:none"
                 transform="matrix(1,0,0,-1,0,2250)"><tspan
                   id="tspan64"
                   y="0"
                   x="0 64.065002 100.005 131.745 171.36 188.55 228.16499 265.67999 282.87 314.60999 352.125 388.065 414.10501 453.72 470.91 510.52499">Machine Learning</tspan></text>
</g><g
               transform="matrix(7.874016e-5,0,0,-7.874016e-5,500,236)"
               id="g68"><path
                 id="path70"
                 style="fill:none;stroke:#c55a11;stroke-width:28575;stroke-linecap:butt;stroke-linejoin:round;stroke-miterlimit:10;stroke-dasharray:none;stroke-opacity:1"
                 d="M 0,0 H 1566333 V 369332 H 0 Z" /></g><g
               transform="matrix(0.24,0,0,0.24,507.2,-324.48)"
               id="g72"><text
                 id="text76"
                 style="font-variant:normal;font-weight:normal;font-size:75px;font-family:Calibri;-inkscape-font-specification:Calibri;writing-mode:lr-tb;fill:#e7e6e6;fill-opacity:1;fill-rule:nonzero;stroke:none"
                 transform="matrix(1,0,0,-1,0,2250)"><tspan
                   id="tspan74"
                   y="0"
                   x="0 46.357498 83.864998 121.3725 160.98 178.16251 209.97 247.47749 283.41 309.4425 349.04999 366.23251 405.84">Deep Learning</tspan></text>
</g><g
               transform="matrix(0.24,0,0,0.24,552.5333,-385.2)"
               id="g78"><text
                 id="text82"
                 style="font-variant:normal;font-weight:normal;font-size:75px;font-family:Calibri;-inkscape-font-specification:Calibri;writing-mode:lr-tb;fill:#e7e6e6;fill-opacity:1;fill-rule:nonzero;stroke:none"
                 transform="matrix(1,0,0,-1,0,2250)"><tspan
                   id="tspan80"
                   y="0"
                   x="0 43.23 60.435001 96.839996 129.12 177.52499 214.605">AlexNet</tspan></text>
</g><g
               transform="matrix(0.24,0,0,0.24,659.8666,-370.8)"
               id="g84"><text
                 id="text88"
                 style="font-variant:normal;font-weight:normal;font-size:75px;font-family:Calibri;-inkscape-font-specification:Calibri;writing-mode:lr-tb;fill:#e7e6e6;fill-opacity:1;fill-rule:nonzero;stroke:none"
                 transform="matrix(1,0,0,-1,0,2250)"><tspan
                   id="tspan86"
                   y="0"
                   x="0 32.355 68.309998 96.614998 120.795 158.325">Faster</tspan></text>
</g><g
               transform="matrix(0.24,0,0,0.24,703.5866,-370.8)"
               id="g90"><text
                 id="text94"
                 style="font-variant:normal;font-weight:normal;font-size:75px;font-family:Calibri;-inkscape-font-specification:Calibri;writing-mode:lr-tb;fill:#e7e6e6;fill-opacity:1;fill-rule:nonzero;stroke:none"
                 transform="matrix(1,0,0,-1,0,2250)"><tspan
                   id="tspan92"
                   y="0"
                   x="0">-</tspan></text>
</g><g
               transform="matrix(0.24,0,0,0.24,709.0866,-370.8)"
               id="g96"><text
                 id="text100"
                 style="font-variant:normal;font-weight:normal;font-size:75px;font-family:Calibri;-inkscape-font-specification:Calibri;writing-mode:lr-tb;fill:#e7e6e6;fill-opacity:1;fill-rule:nonzero;stroke:none"
                 transform="matrix(1,0,0,-1,0,2250)"><tspan
                   id="tspan98"
                   y="0"
                   x="0 39.959999 80.07 128.505">RCNN</tspan></text>
</g><g
               transform="matrix(0.24,0,0,0.24,552.5333,-431.28)"
               id="g102"><text
                 id="text106"
                 style="font-variant:normal;font-weight:normal;font-size:75px;font-family:Calibri;-inkscape-font-specification:Calibri;writing-mode:lr-tb;fill:#e7e6e6;fill-opacity:1;fill-rule:nonzero;stroke:none"
                 transform="matrix(1,0,0,-1,0,2250)"><tspan
                   id="tspan104"
                   y="0"
                   x="0 31.77 65.639999 102.06">LSTM</tspan></text>
</g><g
               transform="matrix(0.24,0,0,0.24,652.8666,-414.24)"
               id="g108"><text
                 id="text112"
                 style="font-variant:normal;font-weight:normal;font-size:75px;font-family:Calibri;-inkscape-font-specification:Calibri;writing-mode:lr-tb;fill:#e7e6e6;fill-opacity:1;fill-rule:nonzero;stroke:none"
                 transform="matrix(1,0,0,-1,0,2250)"><tspan
                   id="tspan110"
                   y="0"
                   x="0 31.815001 56.355 92.294998 131.91 160.425 181.74001 221.355 247.395 307.26001 344.77499">Transformer</tspan></text>
</g><g
               transform="matrix(0.24,0,0,0.24,491.8667,-219.36)"
               id="g114"><text
                 id="text118"
                 style="font-variant:normal;font-weight:normal;font-size:75px;font-family:Calibri;-inkscape-font-specification:Calibri;writing-mode:lr-tb;fill:#e7e6e6;fill-opacity:1;fill-rule:nonzero;stroke:none"
                 transform="matrix(1,0,0,-1,0,2250)"><tspan
                   id="tspan116"
                   y="0"
                   x="0 34.372501 73.995003 113.6175 153.24001 192.8625 218.91">Support</tspan></text>
</g><g
               transform="matrix(0.24,0,0,0.24,549.8117,-219.36)"
               id="g120"><text
                 id="text124"
                 style="font-variant:normal;font-weight:normal;font-size:75px;font-family:Calibri;-inkscape-font-specification:Calibri;writing-mode:lr-tb;fill:#e7e6e6;fill-opacity:1;fill-rule:nonzero;stroke:none"
                 transform="matrix(1,0,0,-1,0,2250)"><tspan
                   id="tspan122"
                   y="0"
                   x="0">-</tspan></text>
</g><g
               transform="matrix(0.24,0,0,0.24,555.3117,-219.36)"
               id="g126"><text
                 id="text130"
                 style="font-variant:normal;font-weight:normal;font-size:75px;font-family:Calibri;-inkscape-font-specification:Calibri;writing-mode:lr-tb;fill:#e7e6e6;fill-opacity:1;fill-rule:nonzero;stroke:none"
                 transform="matrix(1,0,0,-1,0,2250)"><tspan
                   id="tspan128"
                   y="0"
                   x="0 38.977501 76.455002 108.2325 132.50999 172.08749 196.815 225.9675 243.19501 307.29749 343.27499 375.05249 414.63 431.85751 471.435">Vectors Machine</tspan></text>
</g><g
               transform="matrix(0.24,0,0,0.24,358.8666,-257.04)"
               id="g132"><text
                 id="text136"
                 style="font-variant:normal;font-weight:normal;font-size:75px;font-family:Calibri;-inkscape-font-specification:Calibri;writing-mode:lr-tb;fill:#e7e6e6;fill-opacity:1;fill-rule:nonzero;stroke:none"
                 transform="matrix(1,0,0,-1,0,2250)"><tspan
                   id="tspan134"
                   y="0"
                   x="0 40.627499 76.605003 116.1825 155.75999 195.33749 255.24001 272.4675 305.82001 345.39749 370.42499 407.9025 436.23001">Random Forest</tspan></text>
</g><g
               transform="matrix(0.24,0,0,0.24,326.2,-349.68)"
               id="g138"><text
                 id="text142"
                 style="font-variant:normal;font-weight:normal;font-size:75px;font-family:Calibri;-inkscape-font-specification:Calibri;writing-mode:lr-tb;fill:#e7e6e6;fill-opacity:1;fill-rule:nonzero;stroke:none"
                 transform="matrix(1,0,0,-1,0,2250)"><tspan
                   id="tspan140"
                   y="0"
                   x="0 47.392502 71.910004 107.8275 147.42 164.58749 202.08 240.9975 265.965 283.13251 323.77499 363.36749 402.95999 431.30249 456.26999 473.4375 513.03003">Gradient Boosting</tspan></text>
</g><g
               transform="matrix(0.24,0,0,0.24,425.1998,-85.91999)"
               id="g144"><text
                 id="text148"
                 style="font-variant:normal;font-weight:normal;font-size:75px;font-family:Calibri;-inkscape-font-specification:Calibri;writing-mode:lr-tb;fill:#e7e6e6;fill-opacity:1;fill-rule:nonzero;stroke:none"
                 transform="matrix(1,0,0,-1,0,2250)"><tspan
                   id="tspan146"
                   y="0"
                   x="0 40.627499 80.205002 97.432503">Rule</tspan></text>
</g><g
               transform="matrix(0.24,0,0,0.24,457.5748,-85.91999)"
               id="g150"><text
                 id="text154"
                 style="font-variant:normal;font-weight:normal;font-size:75px;font-family:Calibri;-inkscape-font-specification:Calibri;writing-mode:lr-tb;fill:#e7e6e6;fill-opacity:1;fill-rule:nonzero;stroke:none"
                 transform="matrix(1,0,0,-1,0,2250)"><tspan
                   id="tspan152"
                   y="0"
                   x="0">-</tspan></text>
</g><g
               transform="matrix(0.24,0,0,0.24,463.0748,-85.91999)"
               id="g156"><text
                 id="text160"
                 style="font-variant:normal;font-weight:normal;font-size:75px;font-family:Calibri;-inkscape-font-specification:Calibri;writing-mode:lr-tb;fill:#e7e6e6;fill-opacity:1;fill-rule:nonzero;stroke:none"
                 transform="matrix(1,0,0,-1,0,2250)"><tspan
                   id="tspan158"
                   y="0"
                   x="0 39.584999 75.495003 104.655 142.14 181.72501 198.88499 226.69501 259.82999 288.16501 312.375 349.85999 409.76999">based systems</tspan></text>
</g><g
               transform="matrix(0.24,0,0,0.24,150.8665,-144.24)"
               id="g162"><text
                 id="text166"
                 style="font-variant:normal;font-weight:normal;font-size:75px;font-family:Calibri;-inkscape-font-specification:Calibri;writing-mode:lr-tb;fill:#e7e6e6;fill-opacity:1;fill-rule:nonzero;stroke:none"
                 transform="matrix(1,0,0,-1,0,2250)"><tspan
                   id="tspan164"
                   y="0"
                   x="0">D</tspan></text>
</g><g
               transform="matrix(0.24,0,0,0.24,161.9915,-144.24)"
               id="g168"><text
                 id="text172"
                 style="font-variant:normal;font-weight:normal;font-size:75px;font-family:Calibri;-inkscape-font-specification:Calibri;writing-mode:lr-tb;fill:#e7e6e6;fill-opacity:1;fill-rule:nonzero;stroke:none"
                 transform="matrix(1,0,0,-1,0,2250)"><tspan
                   id="tspan170"
                   y="0"
                   x="0 17.190001 34.904999 68.07 96.434998 121.425 145.89 181.83 199.02 234.96001 252.14999 287.04001 326.655 352.69501 369.88501 394.875 434.48999">ijkstra algorithm</tspan></text>
</g><g
               transform="matrix(0.24,0,0,0.24,141.1999,-286.08)"
               id="g174"><text
                 id="text178"
                 style="font-variant:normal;font-weight:normal;font-size:75px;font-family:Calibri;-inkscape-font-specification:Calibri;writing-mode:lr-tb;fill:#e7e6e6;fill-opacity:1;fill-rule:nonzero;stroke:none"
                 transform="matrix(1,0,0,-1,0,2250)"><tspan
                   id="tspan176"
                   y="0"
                   x="0 43.23 60.435001 99.989998 139.545">Alpha</tspan></text>
</g><g
               transform="matrix(0.24,0,0,0.24,183.3249,-286.08)"
               id="g180"><text
                 id="text184"
                 style="font-variant:normal;font-weight:normal;font-size:75px;font-family:Calibri;-inkscape-font-specification:Calibri;writing-mode:lr-tb;fill:#e7e6e6;fill-opacity:1;fill-rule:nonzero;stroke:none"
                 transform="matrix(1,0,0,-1,0,2250)"><tspan
                   id="tspan182"
                   y="0"
                   x="0">-</tspan></text>
</g><g
               transform="matrix(0.24,0,0,0.24,188.8249,-286.08)"
               id="g186"><text
                 id="text190"
                 style="font-variant:normal;font-weight:normal;font-size:75px;font-family:Calibri;-inkscape-font-specification:Calibri;writing-mode:lr-tb;fill:#e7e6e6;fill-opacity:1;fill-rule:nonzero;stroke:none"
                 transform="matrix(1,0,0,-1,0,2250)"><tspan
                   id="tspan188"
                   y="0"
                   x="0 40.627499 77.730003 101.7825 137.75999 154.9875 194.565 220.5675 260.14499 299.7225 316.95001 356.5275">Beta pruning</tspan></text>
</g></g></g></g></g></g></svg>